# xmcd
#
# Track frame offsets:
# 150
# 12185
# 25124
# 37291
# 50193
# 61904
# 75542
# 89250
# 101104
# 114290
# 127577
# 140173
# 150982
# 164609
# 175219
# 188986
# 203577
# 217771
# 220474
# 233714
# 248236
# 260917
# 270881
# 283629
# 298008
# 309832
# 323409
# 334432
# 345293
#
# Disc length: 4765 seconds
#
#
# Revision: 0
# Processed by: cddbd v1.5.2PL0 Copyright (c) Steve Scherf et al.
# Submitted via: Nero 7, 11, 10, 0 
#
DISCID=9e129b1d
DTITLE=Sunnyland Slim - Sunnyland Slim and Friends - Sunnyland Special - The Cobra and J.O.B. Recordings 1949-56
DYEAR=2001
DGENRE=Blues
TTITLE0=When I Was Young
TTITLE1=Bassology
TTITLE2=Worried About My Baby
TTITLE3=Down Home Child
TTITLE4=Sunnyland Special
TTITLE5=Mary Lee
TTITLE6=Leaving Your Town
TTITLE7=Shake It Baby
TTITLE8=Woman Trouble
TTITLE9=That Woman
TTITLE10=Four Day Bounce
TTITLE11=Highway 61
TTITLE12=It's You Baby
TTITLE13=Blues
TTITLE14=Highway 61 (Alternate Take 1)
TTITLE15=Highway 61 (Alternate Take 2)
TTITLE16=Highway 61 (Alternate Take 3)
TTITLE17=Big World
TTITLE18=Dark Road
TTITLE19=I Lost A Good Woman
TTITLE20=Skinny Mama
TTITLE21=Rising Wind
TTITLE22=On The Road Again
TTITLE23=Please Somebody
TTITLE24=Aw Aw Baby
TTITLE25=Sweet Woman From Maine
TTITLE26=Dust My Broom
TTITLE27=Pearly B
TTITLE28=Dust My Broom (Alternate Take)
EXTD=
EXTT0=When I Was Young
EXTT1=Bassology
EXTT2=Worried About My Baby
EXTT3=Down Home Child
EXTT4=Sunnyland Special
EXTT5=Mary Lee
EXTT6=Leaving Your Town
EXTT7=Shake It Baby
EXTT8=Woman Trouble
EXTT9=That Woman
EXTT10=Four Day Bounce
EXTT11=Highway 61
EXTT12=It's You Baby
EXTT13=Blues
EXTT14=Highway 61 (Alternate Take 1)
EXTT15=Highway 61 (Alternate Take 2)
EXTT16=Highway 61 (Alternate Take 3)
EXTT17=Big World
EXTT18=Dark Road
EXTT19=I Lost A Good Woman
EXTT20=Skinny Mama
EXTT21=Rising Wind
EXTT22=On The Road Again
EXTT23=Please Somebody
EXTT24=Aw Aw Baby
EXTT25=Sweet Woman From Maine
EXTT26=Dust My Broom
EXTT27=Pearly B
EXTT28=Dust My Broom (Alternate Take)
PLAYORDER=
